<svg xmlns="http://www.w3.org/2000/svg" xmlns:xlink="http://www.w3.org/1999/xlink" width="98" height="98" viewBox="0 0 98 98"><defs><filter id="a" x="0" y="0" width="98" height="98" filterUnits="userSpaceOnUse"><feOffset dy="3" input="SourceAlpha"/><feGaussianBlur stdDeviation="3" result="b"/><feFlood flood-opacity="0.161"/><feComposite operator="in" in2="b"/><feComposite in="SourceGraphic"/></filter></defs><g transform="translate(-1138 -1841)"><g transform="matrix(1, 0, 0, 1, 1138, 1841)" filter="url(#a)"><rect width="80" height="80" rx="40" transform="translate(9 6)" fill="#fce9cc"/></g><path d="M23.025,3.017A78,78,0,0,0,7.723,4.3C3.389,5.109,1,7.752,1,11.731a7.553,7.553,0,0,0,4.054,6.754V35.423A6.089,6.089,0,0,0,11.135,41.5H35.461a6.089,6.089,0,0,0,6.081-6.081V18.485a7.547,7.547,0,0,0,4.054-6.75c0-2.572-1.139-5.943-6.75-7.443A86.547,86.547,0,0,0,23.025,3.017Zm1.081,4.03a82.024,82.024,0,0,1,13.869,1.2c3.142.845,3.567,2.233,3.567,3.484a3.35,3.35,0,0,1-2.459,3.357,2.027,2.027,0,0,0-1.6,1.98V35.423a2.028,2.028,0,0,1-2.027,2.027h-22.3a2.028,2.028,0,0,1-2.027-2.027V17.068a2.025,2.025,0,0,0-1.6-1.98,3.35,3.35,0,0,1-2.459-3.357c0-1.46.415-2.889,3.413-3.452A74.381,74.381,0,0,1,24.106,7.047ZM17.217,19.206a2.027,2.027,0,1,0,2.027,2.027A2.027,2.027,0,0,0,17.217,19.206Zm14.19,0a2.027,2.027,0,1,0,2.027,2.027A2.027,2.027,0,0,0,31.406,19.206ZM19.244,27.314c0,2.24,2.268,4.054,5.068,4.054s5.068-1.814,5.068-4.054Z" transform="translate(1164 1864.99)" fill="#ff625e"/></g></svg>