<svg xmlns="http://www.w3.org/2000/svg" width="23.051" height="19.758" viewBox="0 0 23.051 19.758">
  <path id="heart" d="M11.525,147.758a.77.77,0,0,1-.566-.232l-8.027-7.744a4.246,4.246,0,0,1-.354-.334q-.225-.232-.714-.843a11.383,11.383,0,0,1-.875-1.254A7.79,7.79,0,0,1,.3,135.8,5.635,5.635,0,0,1,0,134.02,5.9,5.9,0,0,1,1.634,129.6,6.187,6.187,0,0,1,6.149,128a5.128,5.128,0,0,1,1.627.277,6.586,6.586,0,0,1,1.544.746q.714.47,1.228.881a11.852,11.852,0,0,1,.978.875,11.852,11.852,0,0,1,.978-.875q.515-.412,1.228-.881a6.586,6.586,0,0,1,1.544-.746A5.128,5.128,0,0,1,16.9,128a6.187,6.187,0,0,1,4.515,1.6,5.9,5.9,0,0,1,1.634,4.425q0,2.843-2.946,5.788l-8.014,7.718A.77.77,0,0,1,11.525,147.758Z" transform="translate(0 -128)" fill="#ff625e"/>
</svg>
